<svg width="1200" height="800" viewBox="0 0 1200 800" xmlns="http://www.w3.org/2000/svg">
<rect width="100%" height="100%" fill="#0f172a"/>
<defs>
  <filter id="shadow" x="-20%" y="-20%" width="140%" height="140%">
    <feDropShadow dx="2" dy="4" stdDeviation="4" flood-color="#000" flood-opacity="0.5"/>
  </filter>
</defs>
  <line x1="904.0" y1="400.0" x2="815.0" y2="615.0" stroke="#38bdf8" stroke-width="2.5"  opacity="0.8"/>
  <line x1="904.0" y1="400.0" x2="385.0" y2="615.0" stroke="#38bdf8" stroke-width="2.5"  opacity="0.8"/>
  <line x1="815.0" y1="615.0" x2="600.0" y2="704.0" stroke="#38bdf8" stroke-width="2.5" stroke-dasharray="6,4" opacity="0.8"/>
  <line x1="815.0" y1="615.0" x2="296.0" y2="400.0" stroke="#38bdf8" stroke-width="2.5" stroke-dasharray="6,4" opacity="0.8"/>
  <line x1="815.0" y1="615.0" x2="815.0" y2="185.0" stroke="#ef4444" stroke-width="2.5" stroke-dasharray="6,4" opacity="0.8"/>
  <line x1="385.0" y1="615.0" x2="385.0" y2="185.0" stroke="#38bdf8" stroke-width="2.5"  opacity="0.8"/>
  <line x1="385.0" y1="185.0" x2="600.0" y2="96.0" stroke="#38bdf8" stroke-width="2.5" stroke-dasharray="6,4" opacity="0.8"/>
  <g transform="translate(904.0,400.0)" filter="url(#shadow)">
    <rect x="-70" y="-30" width="140" height="60" rx="8" fill="#00b4d8" stroke="#ffffff" stroke-width="2"/>
    <text x="0" y="-8" fill="#ffffff" font-family="Segoe UI, Arial" font-size="12" font-weight="bold" text-anchor="middle">101-mdf-cr01-1</text>
    <text x="0" y="12" fill="#e2e8f0" font-family="Segoe UI, Arial" font-size="10" text-anchor="middle">10.100.1.1</text>
  </g>
  <g transform="translate(815.0,615.0)" filter="url(#shadow)">
    <rect x="-70" y="-30" width="140" height="60" rx="8" fill="#0077b6" stroke="#ffffff" stroke-width="2"/>
    <text x="0" y="-8" fill="#ffffff" font-family="Segoe UI, Arial" font-size="12" font-weight="bold" text-anchor="middle">101-mdf-swds-1</text>
    <text x="0" y="12" fill="#e2e8f0" font-family="Segoe UI, Arial" font-size="10" text-anchor="middle">10.100.1.2</text>
  </g>
  <g transform="translate(600.0,704.0)" filter="url(#shadow)">
    <rect x="-70" y="-30" width="140" height="60" rx="8" fill="#2ec4b6" stroke="#ffffff" stroke-width="2"/>
    <text x="0" y="-8" fill="#ffffff" font-family="Segoe UI, Arial" font-size="12" font-weight="bold" text-anchor="middle">101-id1-swas-1</text>
    <text x="0" y="12" fill="#e2e8f0" font-family="Segoe UI, Arial" font-size="10" text-anchor="middle">10.10.10.11</text>
  </g>
  <g transform="translate(385.0,615.0)" filter="url(#shadow)">
    <rect x="-70" y="-30" width="140" height="60" rx="8" fill="#00b4d8" stroke="#ffffff" stroke-width="2"/>
    <text x="0" y="-8" fill="#ffffff" font-family="Segoe UI, Arial" font-size="12" font-weight="bold" text-anchor="middle">202-mdf-cr01-1</text>
    <text x="0" y="12" fill="#e2e8f0" font-family="Segoe UI, Arial" font-size="10" text-anchor="middle">10.254.1.2</text>
  </g>
  <g transform="translate(296.0,400.0)" filter="url(#shadow)">
    <rect x="-70" y="-30" width="140" height="60" rx="8" fill="#2ec4b6" stroke="#ffffff" stroke-width="2"/>
    <text x="0" y="-8" fill="#ffffff" font-family="Segoe UI, Arial" font-size="12" font-weight="bold" text-anchor="middle">101-id2-swas-1</text>
    <text x="0" y="12" fill="#e2e8f0" font-family="Segoe UI, Arial" font-size="10" text-anchor="middle">10.10.10.12</text>
  </g>
  <g transform="translate(385.0,185.0)" filter="url(#shadow)">
    <rect x="-70" y="-30" width="140" height="60" rx="8" fill="#0077b6" stroke="#ffffff" stroke-width="2"/>
    <text x="0" y="-8" fill="#ffffff" font-family="Segoe UI, Arial" font-size="12" font-weight="bold" text-anchor="middle">202-mdf-swds-1</text>
    <text x="0" y="12" fill="#e2e8f0" font-family="Segoe UI, Arial" font-size="10" text-anchor="middle">10.200.1.2</text>
  </g>
  <g transform="translate(600.0,96.0)" filter="url(#shadow)">
    <rect x="-70" y="-30" width="140" height="60" rx="8" fill="#2ec4b6" stroke="#ffffff" stroke-width="2"/>
    <text x="0" y="-8" fill="#ffffff" font-family="Segoe UI, Arial" font-size="12" font-weight="bold" text-anchor="middle">202-id1-swas-1</text>
    <text x="0" y="12" fill="#e2e8f0" font-family="Segoe UI, Arial" font-size="10" text-anchor="middle">10.20.50.10</text>
  </g>
  <g transform="translate(815.0,185.0)" filter="url(#shadow)">
    <rect x="-70" y="-30" width="140" height="60" rx="8" fill="#ef4444" stroke="#fee2e2" stroke-width="2"/>
    <text x="0" y="-8" fill="#ffffff" font-family="Segoe UI, Arial" font-size="12" font-weight="bold" text-anchor="middle">101-id3-swas-1</text>
    <text x="0" y="12" fill="#e2e8f0" font-family="Segoe UI, Arial" font-size="10" text-anchor="middle">10.10.10.99</text>
    <text x="0" y="24" fill="#fee2e2" font-family="Segoe UI, Arial" font-size="9" font-weight="bold" text-anchor="middle">🚨 UNREACHABLE</text>
  </g>
</svg>